<?xml version="1.0" encoding="UTF-8"?>
<!DOCTYPE svg PUBLIC "-//W3C//DTD SVG 1.1//EN" "http://www.w3.org/Graphics/SVG/1.1/DTD/svg11.dtd">
<!-- Creator: CorelDRAW 2020 (64 Bit) -->
<svg xmlns="http://www.w3.org/2000/svg" xml:space="preserve" width="253px" height="233px" version="1.1" style="shape-rendering:geometricPrecision; text-rendering:geometricPrecision; image-rendering:optimizeQuality; fill-rule:evenodd; clip-rule:evenodd"
viewBox="0 0 7.88 7.24"
 xmlns:xlink="http://www.w3.org/1999/xlink"
 xmlns:xodm="http://www.corel.com/coreldraw/odm/2003">
 <defs>
  <style type="text/css">
   <![CDATA[
    .fil7 {fill:red}
    .fil4 {fill:#231F1F;fill-rule:nonzero}
    .fil3 {fill:#894B28;fill-rule:nonzero}
    .fil2 {fill:#9A0F16;fill-rule:nonzero}
    .fil0 {fill:#A35B2F;fill-rule:nonzero}
    .fil6 {fill:#D9AB3A;fill-rule:nonzero}
    .fil5 {fill:#F0D07F;fill-rule:nonzero}
    .fil1 {fill:red;fill-rule:nonzero}
   ]]>
  </style>
 </defs>
 <g id="Camada_x0020_1">
  <metadata id="CorelCorpID_0Corel-Layer"/>
  <g id="_1740253363568">
   <path class="fil0" d="M4.75 5.03c-0.02,0.15 0.04,0.29 0.11,0.43 0.07,0.14 0.15,0.27 0.15,0.43 -0.77,0.06 -1.55,0.06 -2.33,0 0.02,-0.25 0.05,-0.5 0.07,-0.76 0.02,-0.2 0,-0.39 0.02,-0.59 0.04,-0.48 -0.02,-0.97 -0.17,-1.43 0.64,-0.2 1.27,-0.41 1.9,-0.61 0.06,-0.02 0.14,-0.04 0.2,-0.02 0.08,0.04 0.12,0.14 0.14,0.22 0.1,0.36 0.2,0.72 0.31,1.08 0.03,0.11 0.06,0.23 0.05,0.34 -0.02,0.34 -0.39,0.57 -0.45,0.91z"/>
   <path class="fil1" d="M4.96 5.85c0.08,-0.08 -0.03,-0.24 -0.07,-0.31 -0.03,-0.07 -0.07,-0.16 -0.12,-0.2 -0.14,-0.09 -0.34,-0.09 -0.49,-0.06 -0.17,0.03 -0.33,0.09 -0.49,0.14 -0.11,0.04 -0.23,0.07 -0.36,0.09 -0.04,0 -0.11,-0.01 -0.15,0.01 -0.04,0.02 -0.07,0.09 -0.08,0.14 -0.01,0.06 0.01,0.12 0.05,0.17 0.06,0.08 0.17,0.09 0.27,0.1 0.44,0.03 0.88,0.03 1.32,-0.03 0.03,0 0.06,-0.01 0.09,-0.02 0.01,-0.01 0.02,-0.02 0.03,-0.03z"/>
   <path class="fil2" d="M4.21 5.43c0.15,0 0.31,-0.01 0.46,-0.01 0.04,0 0.08,0 0.12,0.02 0.06,0.02 0.1,0.08 0.13,0.14 0.04,0.09 0.08,0.18 0.11,0.27 -0.09,-0.08 -0.2,-0.12 -0.31,-0.13 -0.11,-0.02 -0.23,-0.01 -0.34,0.02 -0.13,0.03 -0.27,0.08 -0.4,0.11 -0.14,0.04 -0.29,0.06 -0.43,0.04 0.04,-0.13 0.15,-0.23 0.27,-0.25 0.03,0 0.06,0 0.09,-0.01 0.02,-0.01 0.05,-0.04 0.04,-0.07 0,-0.03 -0.03,-0.05 -0.03,-0.09 0.09,-0.04 0.19,-0.04 0.29,-0.04z"/>
   <path class="fil3" d="M3.93 5.12c0.02,0.04 0.02,0.1 0.01,0.15 0.14,-0.16 0.21,-0.38 0.19,-0.59 0.05,0.11 0.08,0.22 0.07,0.34 0,0.12 -0.05,0.23 -0.13,0.31 -0.09,0.1 -0.23,0.14 -0.37,0.15 -0.04,0.01 -0.09,0.01 -0.12,-0.03 -0.03,-0.03 -0.04,-0.08 -0.04,-0.12 0.01,-0.05 0.02,-0.09 0.03,-0.13 0.01,-0.05 0.01,-0.09 -0.01,-0.14 0.08,0.06 0.07,0.14 0.07,0.23 0.01,0.02 0.01,0.04 0.02,0.06 0.03,0.03 0.07,0.02 0.1,0.01 0.1,-0.04 0.17,-0.14 0.18,-0.24z"/>
   <path class="fil3" d="M3.47 5.41c-0.05,0.02 -0.1,-0.01 -0.14,-0.04 -0.05,-0.06 -0.09,-0.12 -0.1,-0.2 0,-0.07 0.01,-0.14 0.05,-0.2 0.04,-0.06 0.11,-0.1 0.17,-0.12 -0.05,0.07 -0.09,0.15 -0.1,0.24 -0.01,0.08 0.03,0.18 0.11,0.22 0.05,-0.06 0.09,-0.14 0.09,-0.22 0.02,0.07 0.01,0.16 -0.02,0.23 -0.01,0.04 -0.03,0.07 -0.06,0.09z"/>
   <path class="fil3" d="M3.06 3.84c0.02,-0.03 0.06,-0.04 0.09,-0.05 0.04,-0.01 0.08,-0.01 0.11,-0.01 0.06,-0.01 0.12,-0.03 0.17,-0.07 -0.03,0.08 -0.09,0.15 -0.16,0.19 -0.04,0.02 -0.08,0.03 -0.1,0.06 -0.03,0.04 -0.01,0.11 0.03,0.13 -0.06,-0.01 -0.11,-0.04 -0.15,-0.09 -0.03,-0.05 -0.03,-0.12 0.01,-0.16z"/>
   <path class="fil3" d="M3.39 4.04c-0.03,0.06 -0.06,0.11 -0.07,0.17 -0.01,0.06 0,0.13 0.05,0.17 -0.03,0.01 -0.05,0.03 -0.08,0.03 -0.02,0 -0.05,0 -0.07,-0.02 -0.02,-0.02 -0.02,-0.05 -0.02,-0.08 0,-0.12 0.08,-0.23 0.19,-0.27z"/>
   <path class="fil3" d="M3.22 4.83c-0.03,-0.02 -0.04,-0.06 -0.04,-0.1 -0.01,-0.08 0.01,-0.15 0.05,-0.22 0.04,-0.06 0.11,-0.11 0.18,-0.13 -0.03,0.07 -0.07,0.14 -0.07,0.21 0,0.08 0.03,0.16 0.1,0.19 -0.03,0.03 -0.06,0.05 -0.1,0.06 -0.04,0.02 -0.08,0.01 -0.12,-0.01z"/>
   <path class="fil3" d="M4.13 4.04c0.04,0.02 0.09,0.05 0.12,0.09 0.04,0.05 0.04,0.11 0.03,0.17 -0.01,0.06 -0.04,0.11 -0.05,0.17 -0.01,0.05 -0.04,0.09 -0.06,0.14 -0.02,0.06 -0.02,0.13 -0.01,0.19 0.01,0.06 0.03,0.11 0.05,0.17 0,0.02 0.01,0.05 0.01,0.07 0.01,0.03 0.01,0.06 0.01,0.09 0.01,0.06 -0.01,0.12 -0.05,0.17 0.2,-0.01 0.39,-0.02 0.59,-0.03 0,-0.22 0.06,-0.44 0.17,-0.63 0.09,-0.15 0.2,-0.28 0.24,-0.45 0.03,-0.17 -0.02,-0.34 -0.07,-0.5 -0.09,-0.3 -0.18,-0.61 -0.27,-0.91 -0.03,0.17 -0.03,0.35 -0.06,0.52 -0.04,0.17 -0.13,0.33 -0.28,0.41 -0.11,0.06 -0.23,0.06 -0.35,0.07 -0.17,0 -0.37,-0.03 -0.54,-0.07 0.13,0.14 0.35,0.24 0.52,0.33z"/>
   <path class="fil4" d="M2.68 5.94l-0.05 -0.01 0.07 -0.8c0.01,-0.1 0.01,-0.2 0.01,-0.3 0,-0.09 0,-0.19 0.01,-0.29 0.04,-0.48 -0.01,-0.96 -0.16,-1.42l-0.01 -0.04 1.93 -0.62c0.05,-0.02 0.1,-0.03 0.16,-0.03 0.03,0 0.05,0 0.08,0.01 0.11,0.05 0.15,0.18 0.17,0.25l0.3 1.08c0.03,0.11 0.06,0.23 0.06,0.35 -0.02,0.19 -0.13,0.35 -0.24,0.5 -0.1,0.14 -0.19,0.27 -0.21,0.41 -0.02,0.14 0.04,0.29 0.1,0.41l0.02 0.03c0.06,0.13 0.13,0.26 0.14,0.41l0 0.05 -0.04 0c-0.4,0.03 -0.81,0.05 -1.21,0.05 0,0 0,0 0,0 -0.38,0 -0.76,-0.01 -1.13,-0.04zm2.16 -0.43l0 0 -0.02 -0.03c-0.07,-0.14 -0.14,-0.3 -0.11,-0.46 0.03,-0.17 0.13,-0.31 0.23,-0.45 0.1,-0.15 0.2,-0.29 0.22,-0.45 0,-0.11 -0.03,-0.22 -0.06,-0.32l-0.3 -1.09c-0.02,-0.07 -0.05,-0.16 -0.12,-0.18 -0.01,-0.01 -0.03,-0.01 -0.04,-0.01 -0.04,0 -0.08,0.01 -0.13,0.02l-1.85 0.6c0.14,0.45 0.19,0.94 0.15,1.41 -0.01,0.09 -0.01,0.19 -0.01,0.28 0,0.1 0,0.2 -0.01,0.31l-0.06 0.71c0.36,0.03 0.72,0.04 1.08,0.04 0.38,0 0.77,-0.02 1.15,-0.05 -0.01,-0.11 -0.07,-0.22 -0.12,-0.33z"/>
   <path class="fil4" d="M3.99 4.06c-0.09,0.06 -0.19,0.11 -0.29,0.11 -0.11,-0.01 -0.21,-0.07 -0.25,-0.17 0.16,0.1 0.36,0.12 0.54,0.06z"/>
   <path class="fil4" d="M2.96 3.57c0.03,0.02 0.06,0.05 0.1,0.07 0.12,0.06 0.26,0.09 0.4,0.06 -0.09,0.11 -0.23,0.18 -0.37,0.19 -0.02,0.07 0.03,0.15 0.1,0.17 0.07,0.02 0.15,0 0.22,-0.03 -0.08,0.05 -0.15,0.12 -0.17,0.21 -0.01,0.04 -0.02,0.08 0,0.11 0.02,0.03 0.06,0.04 0.1,0.03 0.03,-0.01 0.06,-0.03 0.09,-0.05 0.01,0.04 -0.02,0.06 -0.05,0.08 -0.04,0.02 -0.09,0.03 -0.12,0.07 -0.03,0.05 -0.04,0.14 -0.04,0.19 0.01,0.04 0.01,0.07 0.02,0.1 0.02,0.02 0.04,0.05 0.08,0.05 0.03,0 0.06,-0.02 0.08,-0.04 0.02,-0.03 0.03,-0.06 0.04,-0.09 0.04,0.04 0.04,0.11 0.01,0.16 -0.03,0.05 -0.08,0.08 -0.11,0.13 -0.05,0.07 -0.04,0.17 0,0.25 0.03,0.05 0.07,0.09 0.11,0.13 0.05,0.05 0.08,0.07 0.11,0.14 0.03,0.06 0.06,0.12 0.09,0.18 0.01,0.02 0.09,0.26 0.1,0.26 -0.37,0.02 -0.76,-0.03 -1.13,-0.01 0.19,-0.74 0.2,-1.53 0.04,-2.28 -0.02,-0.11 -0.05,-0.21 -0.08,-0.31 -0.01,-0.05 -0.04,-0.11 -0.04,-0.16 -0.01,-0.03 -0.02,-0.03 0.02,-0.04 0.02,-0.01 0.04,-0.01 0.06,0 0.02,0.02 0.04,0.06 0.05,0.09 0.03,0.04 0.06,0.09 0.09,0.12 0.06,0.08 0.12,0.15 0.2,0.22z"/>
   <path class="fil4" d="M4.33 3.67c-0.24,0.1 -0.51,0.1 -0.75,0.02 0.1,0.08 0.23,0.12 0.37,0.13 0.13,0.02 0.26,0 0.39,-0.03 0.09,-0.02 0.19,-0.05 0.27,-0.12 0.07,-0.07 0.1,-0.19 0.04,-0.27 -0.05,0.13 -0.18,0.22 -0.32,0.27z"/>
   <path class="fil4" d="M4.01 4.33c-0.08,0.06 -0.18,0.11 -0.28,0.11 -0.11,0 -0.22,-0.07 -0.25,-0.17 0.16,0.1 0.36,0.12 0.53,0.06z"/>
   <path class="fil4" d="M4.04 4.75c-0.08,0.06 -0.18,0.11 -0.28,0.1 -0.11,0 -0.22,-0.06 -0.25,-0.16 0.16,0.1 0.36,0.12 0.53,0.06z"/>
   <path class="fil4" d="M4.25 5.2c0.02,-0.11 -0.02,-0.22 -0.05,-0.32 -0.03,-0.11 -0.05,-0.23 0,-0.33 -0.05,0.03 -0.08,0.1 -0.07,0.16 0,0.06 0.02,0.12 0.03,0.18 0.03,0.17 -0.06,0.35 -0.19,0.46 -0.14,0.11 -0.31,0.16 -0.49,0.2 0.16,0.01 0.32,0.02 0.47,-0.02 0.15,-0.05 0.28,-0.17 0.3,-0.33z"/>
   <path class="fil4" d="M4.2 5.25c-0.1,0.03 -0.2,0.09 -0.3,0.13 -0.2,0.08 -0.42,0.09 -0.63,0.04 -0.01,0.02 0,0.04 0.02,0.05 0.01,0.02 0.03,0.02 0.05,0.03 0.16,0.05 0.33,0.03 0.49,-0.01 0.17,-0.04 0.32,-0.11 0.49,-0.14 0.16,-0.03 0.34,-0.03 0.49,0.04 0.02,-0.04 -0.01,-0.09 -0.05,-0.12 -0.04,-0.02 -0.09,-0.03 -0.13,-0.03 -0.15,-0.02 -0.29,-0.03 -0.43,0.01z"/>
   <path class="fil4" d="M3.67 5.5c-0.07,-0.07 -0.1,-0.17 -0.09,-0.26 0.01,-0.04 0.02,-0.09 0.02,-0.13 0,-0.04 -0.02,-0.09 -0.07,-0.1 0.04,0.07 0.03,0.16 -0.01,0.24 -0.02,0.03 -0.04,0.06 -0.05,0.1 -0.02,0.05 0,0.11 0.05,0.14 0.04,0.04 0.1,0.04 0.15,0.01z"/>
   <path class="fil4" d="M4.14 3.57c0.01,0.02 0,0.04 -0.01,0.05 -0.02,0.01 -0.03,0.02 -0.04,0.02 -0.04,0.01 -0.07,0.01 -0.1,0.01 -0.02,0 -0.04,0 -0.05,-0.03 0,-0.02 0,-0.04 0.02,-0.05 0.01,-0.02 0.02,-0.02 0.04,-0.02 0.02,-0.01 0.04,-0.02 0.07,-0.02 0.01,-0.01 0.03,-0.01 0.04,0 0.02,0 0.03,0.01 0.03,0.04z"/>
   <path class="fil4" d="M3.45 5.79c0.13,0.01 0.26,-0.02 0.39,-0.07 0.05,-0.02 0.1,-0.04 0.16,-0.07 0.03,-0.01 0.06,-0.03 0.09,-0.04 0.02,-0.01 0.06,-0.04 0.08,-0.04 -0.09,-0.01 -0.18,-0.06 -0.24,-0.12 0.13,0.02 0.27,0.04 0.4,0.03 0.13,0 0.25,-0.02 0.37,-0.03 0.04,0 0.08,0 0.11,0.01 0.07,0.03 0.11,0.1 0.14,0.16 -0.17,-0.03 -0.34,-0.02 -0.51,0.02 -0.09,0.03 -0.17,0.05 -0.25,0.08 -0.04,0.02 -0.09,0.04 -0.13,0.05 -0.03,0.02 -0.07,0.04 -0.11,0.04 -0.08,0.01 -0.16,0.02 -0.24,0.01 -0.05,0 -0.09,0 -0.14,-0.01 -0.04,0 -0.08,-0.02 -0.12,-0.02z"/>
   <path class="fil3" d="M4.69 2.5c-0.07,-0.02 -0.15,0 -0.22,0.02 -0.22,0.07 -0.44,0.14 -0.66,0.22 -0.39,0.12 -0.78,0.25 -1.17,0.39 0.36,0.09 0.73,0.11 1.09,0.04 0.13,-0.03 0.27,-0.07 0.4,-0.1 0.14,-0.03 0.28,-0.04 0.42,0 0.13,0.03 0.26,0.12 0.31,0.25 0.04,-0.18 0.04,-0.36 0.01,-0.54 -0.01,-0.06 -0.02,-0.11 -0.05,-0.17 -0.03,-0.05 -0.07,-0.09 -0.13,-0.11z"/>
  </g>
  <g id="_1740253370432">
   <path class="fil5" d="M1.19 4.6c0,1.28 0.37,2.32 0.83,2.32 0.46,0 0.83,-1.04 0.83,-2.32 0,-1.28 -0.37,-2.32 -0.83,-2.32 -0.46,0 -0.83,1.04 -0.83,2.32z"/>
   <path class="fil4" d="M1.15 4.6c0,-1.33 0.38,-2.36 0.87,-2.36 0.49,0 0.87,1.03 0.87,2.36 0,1.33 -0.38,2.37 -0.87,2.37 -0.49,0 -0.87,-1.04 -0.87,-2.37zm0.09 0l0 0c0,1.24 0.36,2.28 0.78,2.28 0.42,0 0.78,-1.04 0.78,-2.28 0,-1.23 -0.36,-2.27 -0.78,-2.27 -0.42,0 -0.78,1.04 -0.78,2.27z"/>
  </g>
  <g id="_1740253370576">
   <path class="fil5" d="M1.19 4.66c0,1.29 0.33,2.32 0.73,2.32 0.41,0 0.74,-1.03 0.74,-2.32 0,-1.28 -0.33,-2.32 -0.74,-2.32 -0.4,0 -0.73,1.04 -0.73,2.32z"/>
   <path class="fil6" d="M1.25 5.66c0.06,0.33 0.16,0.66 0.29,0.98 0.04,0.09 0.08,0.18 0.16,0.25 0.07,0.06 0.18,0.09 0.28,0.07 0.07,-0.01 0.14,-0.05 0.18,-0.11 0.08,-0.11 0.01,-0.25 -0.03,-0.37 -0.23,-0.66 -0.25,-1.4 -0.06,-2.08 -0.14,0.19 -0.28,0.38 -0.41,0.57 -0.11,-0.87 -0.01,-1.76 0.29,-2.59 -0.13,-0.01 -0.25,0.04 -0.33,0.15 -0.08,0.1 -0.12,0.22 -0.16,0.34 -0.28,0.9 -0.39,1.87 -0.21,2.79z"/>
   <path class="fil4" d="M1.36 6.32c-0.14,-0.44 -0.21,-1.03 -0.21,-1.66 0,-0.62 0.07,-1.21 0.21,-1.65 0.15,-0.46 0.35,-0.71 0.56,-0.71 0.22,0 0.42,0.25 0.56,0.71 0.14,0.44 0.22,1.03 0.22,1.65 0,0.63 -0.08,1.22 -0.22,1.66 -0.14,0.46 -0.34,0.71 -0.56,0.71 -0.21,0 -0.41,-0.25 -0.56,-0.71zm-0.12 -1.66l0 0c0,1.36 0.35,2.28 0.68,2.28 0.34,0 0.69,-0.92 0.69,-2.28 0,-1.36 -0.35,-2.27 -0.69,-2.27 -0.33,0 -0.68,0.91 -0.68,2.27z"/>
   <path class="fil4" d="M1.4 4.6c0,0.78 0.18,1.41 0.4,1.41 0.22,0 0.39,-0.63 0.39,-1.41 0,-0.78 -0.17,-1.41 -0.39,-1.41 -0.22,0 -0.4,0.63 -0.4,1.41z"/>
   <g>
    <path class="fil5" d="M1.91 3.95c0.07,0.14 0.12,0.41 0.12,0.71 0,0.3 -0.05,0.56 -0.11,0.71 -0.14,-0.46 -0.14,-0.96 -0.01,-1.42z"/>
    <path class="fil6" d="M1.8 3.84c0.04,0 0.08,0.04 0.11,0.11 -0.13,0.46 -0.13,0.96 0.01,1.42 -0.04,0.07 -0.08,0.12 -0.12,0.12 -0.13,0 -0.23,-0.37 -0.23,-0.83 0,-0.45 0.1,-0.82 0.23,-0.82z"/>
   </g>
  </g>
  <path class="fil4" d="M5.75 3.55c-0.03,-0.1 -0.05,-0.2 -0.11,-0.29 -0.05,-0.09 -0.14,-0.16 -0.24,-0.18 0.15,0.13 0.27,0.29 0.35,0.47z"/>
  <path class="fil4" d="M4.43 3.06c0.01,0.05 0.01,0.11 0.03,0.16 0.01,0.05 0.05,0.09 0.08,0.13 0.06,0.07 0.12,0.14 0.17,0.22 -0.03,-0.09 -0.01,-0.19 -0.01,-0.29 -0.01,-0.13 -0.06,-0.26 -0.11,-0.38 -0.05,-0.13 -0.1,-0.26 -0.09,-0.39 -0.22,0.01 -0.41,0.19 -0.63,0.2 0.12,0 0.24,0.02 0.35,0.08 0.1,0.05 0.18,0.15 0.21,0.27z"/>
  <polygon class="fil1" points="3.98,0.18 3.31,0.04 3.03,0.57 2.98,1.05 3.08,1.53 3.14,1.68 3.24,1.21 3.26,0.95 3.38,0.81 3.57,0.76 3.81,0.81 3.86,0.57 3.93,0.28 "/>
  <path class="fil2" d="M3.43 0.7c0.09,-0.06 0.15,-0.15 0.17,-0.25 0.04,0.06 0.07,0.14 0.06,0.23 0.04,-0.07 0.07,-0.14 0.1,-0.21 0.01,0.1 0.03,0.2 0.06,0.3 -0.01,-0.1 -0.01,-0.2 0.01,-0.29 0.01,-0.05 0.02,-0.07 0.06,-0.11 0.03,-0.04 0.06,-0.08 0.09,-0.12 0.02,-0.02 0.03,-0.04 0.03,-0.06 0,-0.02 -0.01,-0.04 -0.03,-0.05 -0.02,-0.01 -0.04,-0.01 -0.06,-0.01 -0.15,-0.03 -0.3,-0.06 -0.45,-0.08 -0.03,0 -0.07,0 -0.09,0.02 -0.02,0.01 -0.03,0.04 -0.03,0.06 0.01,0.05 0.03,0.09 0.04,0.14 0.01,0.04 0.02,0.09 0.03,0.14 0.01,0.05 0.01,0.1 0.01,0.15 0.01,0.02 0.02,0.13 0,0.14z"/>
  <path class="fil2" d="M3.05 0.82c0.02,0.15 0.03,0.29 0.05,0.44 0.04,-0.06 0.1,-0.12 0.17,-0.16 -0.09,0.16 -0.12,0.36 -0.13,0.54 -0.14,-0.25 -0.2,-0.54 -0.19,-0.83 0,-0.02 0.01,-0.05 0.03,-0.06 0.02,0 0.04,0.01 0.05,0.02 0.01,0.02 0.02,0.03 0.02,0.05z"/>
  <path class="fil2" d="M3.2 0.45c0,0 0.01,0 0.01,0 0.03,0.01 0.05,0.1 0.06,0.13 0.03,0.11 0.03,0.22 0.04,0.33 0.05,-0.09 0.06,-0.2 0.04,-0.3 -0.01,-0.11 -0.04,-0.2 -0.07,-0.3 -0.01,-0.04 -0.03,-0.07 -0.06,-0.08 -0.06,-0.01 -0.07,0.06 -0.09,0.1 -0.03,0.05 -0.06,0.1 -0.08,0.15 -0.03,0.07 -0.06,0.15 -0.04,0.23 0.01,0.08 0.06,0.15 0.14,0.17 -0.06,-0.07 -0.08,-0.17 -0.06,-0.26 0.02,0.03 0.06,0.06 0.1,0.07 -0.04,-0.03 -0.07,-0.09 -0.06,-0.14 0.01,-0.03 0.04,-0.1 0.07,-0.1z"/>
  <path class="fil5" d="M3.78 0.95c0.01,0.03 0,0.05 0.04,0.08 0.04,0.03 0.12,0.08 0.14,0.1 0.03,0.01 0.12,0.05 0.08,0.07 -0.05,0.01 -0.08,0.02 -0.11,0.04 -0.07,0.03 -0.15,0.04 -0.21,0.08 -0.07,0.04 -0.13,0.1 -0.17,0.17 -0.13,0.23 -0.05,0.54 -0.2,0.76 -0.03,0.05 -0.07,0.09 -0.1,0.13 -0.15,0.14 -0.29,0.29 -0.43,0.44 -0.07,-0.19 -0.01,-0.42 0.15,-0.56 0.06,-0.05 0.13,-0.09 0.18,-0.15 0.07,-0.11 0.05,-0.26 0.03,-0.39 -0.02,-0.18 -0.01,-0.37 0.04,-0.55 0.02,-0.09 0.04,-0.18 0.1,-0.25 0.07,-0.09 0.18,-0.14 0.29,-0.15 0.05,0 0.12,0.01 0.16,0.03 0.07,0.04 0.01,0.1 0.01,0.15z"/>
  <path class="fil6" d="M3.67 0.8c-0.04,0.04 -0.08,0.09 -0.11,0.14 -0.01,0.03 -0.02,0.06 -0.05,0.08 -0.03,0.02 -0.07,0.03 -0.1,0.05 -0.07,0.03 -0.12,0.08 -0.17,0.14 -0.01,-0.12 0.02,-0.24 0.11,-0.32 0.08,-0.08 0.21,-0.12 0.32,-0.09l0 0z"/>
  <path class="fil6" d="M4.02 1.18c0,-0.02 -0.02,-0.03 -0.03,-0.04 -0.12,-0.13 -0.32,-0.17 -0.49,-0.11 -0.16,0.06 -0.29,0.22 -0.3,0.4 0.05,-0.11 0.16,-0.19 0.28,-0.2 -0.06,0.03 -0.11,0.09 -0.13,0.15 0.11,-0.07 0.24,-0.09 0.36,-0.11 0.08,-0.01 0.15,-0.02 0.23,-0.03 0.03,-0.01 0.08,-0.02 0.08,-0.06z"/>
  <path class="fil6" d="M3.81 1.29c-0.13,0.06 -0.25,0.15 -0.34,0.26 -0.09,0.12 -0.15,0.26 -0.16,0.41 0,0.07 0.01,0.14 0.06,0.19 -0.3,0.31 -0.02,0.41 0.04,0.42 0.35,0.12 0.82,0.1 1.19,-0.38 0.04,0 0.09,-0.01 0.13,-0.03 0.04,-0.02 0.07,-0.06 0.08,-0.1 0.01,-0.03 0,-0.06 -0.01,-0.09 -0.05,-0.2 -0.16,-0.38 -0.3,-0.52 -0.11,-0.11 -0.24,-0.21 -0.4,-0.22 -0.1,-0.01 -0.2,0.02 -0.29,0.06z"/>
  <path class="fil5" d="M4.55 2.07c0.1,0 0.2,0 0.3,0 -0.06,-0.21 -0.17,-0.41 -0.31,-0.59 -0.07,-0.08 -0.15,-0.17 -0.26,-0.21 -0.1,-0.03 -0.21,-0.03 -0.31,-0.01 -0.09,0.01 -0.19,0.03 -0.26,0.08 -0.08,0.05 -0.15,0.13 -0.15,0.22 0.13,-0.14 0.32,-0.21 0.51,-0.19 0.18,0.02 0.36,0.14 0.44,0.31 -0.03,-0.01 -0.06,-0.02 -0.09,-0.03 0.1,0.12 0.15,0.27 0.13,0.42z"/>
  <path class="fil5" d="M4.44 2.53c-0.03,-0.04 -0.1,-0.06 -0.15,-0.04 -0.06,0.01 -0.11,0.04 -0.16,0.07 -0.24,0.12 -0.55,0.11 -0.79,-0.02 -0.04,-0.03 -0.09,-0.06 -0.14,-0.06 -0.04,0 -0.09,0.03 -0.12,0.06 -0.12,0.09 -0.21,0.21 -0.26,0.35 0.23,0.15 0.51,0.23 0.79,0.21 0.27,-0.02 0.54,-0.13 0.75,-0.31 0.04,-0.04 0.07,-0.07 0.09,-0.12 0.02,-0.04 0.02,-0.1 -0.01,-0.14z"/>
  <path class="fil6" d="M2.86 2.76c0.04,-0.04 0.08,-0.09 0.14,-0.1 0.05,-0.01 0.1,0.02 0.15,0.05 0.16,0.09 0.36,0.12 0.54,0.08 -0.04,0.07 -0.11,0.12 -0.18,0.14 0.32,0.06 0.68,-0.03 0.93,-0.25 -0.19,0.2 -0.44,0.34 -0.71,0.39 -0.26,0.05 -0.54,0.01 -0.8,-0.08 -0.05,-0.02 -0.1,-0.04 -0.12,-0.09 -0.01,-0.05 0.02,-0.1 0.05,-0.14z"/>
  <path class="fil4" d="M2.8 2.93l-0.03 -0.02 0.01 -0.04c0.05,-0.14 0.15,-0.28 0.27,-0.37 0.04,-0.03 0.09,-0.06 0.15,-0.06 0.06,0 0.11,0.03 0.15,0.05 0.01,0 0.01,0.01 0.02,0.01 0.11,0.07 0.25,0.1 0.39,0.1 0.12,0 0.24,-0.03 0.35,-0.08 0.01,-0.01 0.02,-0.01 0.03,-0.02 0.05,-0.02 0.09,-0.05 0.14,-0.06 0.01,0 0.03,0 0.05,0 0.06,0 0.12,0.02 0.15,0.06 0.04,0.05 0.04,0.12 0.01,0.19 -0.02,0.05 -0.06,0.1 -0.1,0.13 -0.22,0.19 -0.49,0.31 -0.78,0.32 -0.03,0.01 -0.05,0.01 -0.08,0.01 -0.26,0 -0.52,-0.08 -0.73,-0.22zm1.5 -0.4l0 0c-0.04,0.01 -0.08,0.03 -0.11,0.05 -0.01,0.01 -0.03,0.01 -0.04,0.02 -0.12,0.06 -0.25,0.09 -0.39,0.09 -0.16,0 -0.31,-0.04 -0.44,-0.11 0,-0.01 -0.01,-0.01 -0.01,-0.01 -0.04,-0.02 -0.07,-0.04 -0.11,-0.04 -0.03,0 -0.07,0.02 -0.1,0.04 -0.1,0.08 -0.18,0.18 -0.22,0.3 0.19,0.12 0.42,0.19 0.65,0.19 0.02,0 0.05,0 0.07,-0.01 0.27,-0.01 0.53,-0.12 0.73,-0.3 0.03,-0.03 0.06,-0.06 0.08,-0.1 0.01,-0.02 0.02,-0.07 0,-0.09 -0.02,-0.02 -0.05,-0.03 -0.08,-0.03 -0.01,0 -0.02,0 -0.03,0z"/>
  <path class="fil4" d="M2.81 2.44c0.07,-0.16 0.19,-0.29 0.33,-0.33l0.03 0.07c-0.14,0.05 -0.23,0.19 -0.28,0.3 -0.03,0.08 -0.05,0.16 -0.05,0.25 0.04,-0.06 0.08,-0.11 0.12,-0.16 0.06,-0.08 0.11,-0.11 0.16,-0.14 0.03,-0.02 0.05,-0.03 0.08,-0.05l0.05 0.07c-0.03,0.02 -0.06,0.04 -0.08,0.05 -0.05,0.04 -0.09,0.06 -0.14,0.12 -0.06,0.07 -0.12,0.16 -0.16,0.24 0.23,0.14 0.5,0.2 0.77,0.17 0.28,-0.04 0.55,-0.17 0.75,-0.37 0.08,-0.08 0.12,-0.14 0.08,-0.22 -0.02,-0.03 -0.05,-0.06 -0.08,-0.08l0.06 -0.07c0.03,0.03 0.07,0.06 0.1,0.11 0.08,0.14 -0.03,0.26 -0.1,0.33 -0.21,0.21 -0.5,0.35 -0.8,0.38 -0.05,0.01 -0.1,0.01 -0.15,0.01 -0.23,0 -0.46,-0.06 -0.66,-0.17l-0.03 0.08 -0.04 -0.14c-0.03,-0.15 -0.02,-0.31 0.04,-0.45z"/>
  <g id="_1740253381472">
   <g>
    <path class="fil5" d="M4.92 2.15c-0.05,0.14 -0.1,0.28 -0.22,0.35 -0.11,0.06 -0.26,0.04 -0.34,-0.06 -0.02,-0.03 -0.04,-0.07 -0.06,-0.11 -0.01,-0.05 -0.03,-0.11 -0.03,-0.17 0,-0.03 0,-0.08 0.02,-0.1 0.03,-0.04 0.08,-0.04 0.13,-0.04 0.14,0.01 0.29,0.02 0.43,0.02 0.03,0 0.05,0.01 0.06,0.02 0.03,0.02 0.02,0.06 0.01,0.09z"/>
    <path class="fil5" d="M4.56 2.57c-0.09,0 -0.17,-0.03 -0.23,-0.1 -0.02,-0.03 -0.04,-0.07 -0.06,-0.12 -0.02,-0.06 -0.03,-0.12 -0.04,-0.18 0,-0.05 0,-0.1 0.03,-0.14 0.05,-0.05 0.12,-0.04 0.16,-0.04l0.44 0.02c0.02,0 0.05,0 0.08,0.03 0.04,0.04 0.02,0.1 0.01,0.12 -0.04,0.15 -0.1,0.3 -0.24,0.38 -0.04,0.02 -0.09,0.03 -0.15,0.03zm-0.17 -0.51l0 0c-0.03,0 -0.06,0.01 -0.07,0.02 -0.02,0.02 -0.02,0.06 -0.01,0.08 0,0.06 0.01,0.11 0.03,0.16 0.01,0.05 0.03,0.08 0.05,0.1 0.06,0.08 0.19,0.1 0.29,0.05 0.11,-0.06 0.16,-0.19 0.2,-0.33 0.02,-0.04 0.01,-0.05 0.01,-0.05 -0.01,-0.01 -0.03,-0.01 -0.04,-0.01l-0.43 -0.02c-0.01,0 -0.02,0 -0.03,0z"/>
   </g>
   <path class="fil6" d="M4.74 2.46c-0.04,0.03 -0.08,0.06 -0.12,0.07 -0.07,0.01 -0.14,-0.01 -0.19,-0.04 -0.05,-0.04 -0.09,-0.1 -0.12,-0.15 0.11,0 0.21,-0.02 0.3,-0.08 -0.01,0.04 -0.03,0.07 -0.04,0.11 0.15,-0.06 0.26,-0.18 0.32,-0.32 0.01,0.15 -0.05,0.3 -0.15,0.41z"/>
   <path class="fil4" d="M4.33 2.47c-0.03,-0.03 -0.05,-0.07 -0.07,-0.12 -0.02,-0.06 -0.03,-0.12 -0.04,-0.18 0,-0.04 0,-0.1 0.04,-0.14 0.04,-0.05 0.09,-0.05 0.13,-0.05 0.01,0 0.02,0 0.03,0l0.44 0.02c0.02,0 0.06,0 0.09,0.03 0.04,0.05 0.02,0.11 0.01,0.14 -0.05,0.15 -0.11,0.3 -0.24,0.37 -0.05,0.03 -0.1,0.04 -0.16,0.04 0,0 0,0 0,0 -0.09,0 -0.18,-0.04 -0.23,-0.11zm0 -0.38l0 0c-0.02,0.01 -0.02,0.05 -0.02,0.07 0.01,0.05 0.02,0.11 0.04,0.16 0.01,0.04 0.03,0.07 0.05,0.1 0.03,0.04 0.1,0.07 0.16,0.07 0.04,0 0.08,-0.01 0.11,-0.03 0.11,-0.06 0.16,-0.18 0.21,-0.32 0.01,-0.04 0,-0.05 0,-0.05 0,0 -0.01,0 -0.03,0l-0.43 -0.02c-0.01,0 -0.02,0 -0.03,0 -0.03,0 -0.05,0 -0.06,0.02z"/>
  </g>
  <g>
   <path class="fil4" d="M3.22 2.5c0.07,0.06 0.14,0.12 0.23,0.16 0.07,0.03 0.16,0.05 0.25,0.05 0.05,0 0.09,-0.01 0.14,-0.01 0.13,-0.03 0.25,-0.07 0.37,-0.12 0.05,-0.02 0.11,-0.04 0.16,-0.08 0.06,-0.05 0.08,-0.1 0.08,-0.17 0,-0.07 -0.01,-0.14 -0.01,-0.21l0.44 -0.02 -0.01 -0.05c-0.05,-0.22 -0.12,-0.4 -0.23,-0.54 -0.13,-0.17 -0.32,-0.28 -0.5,-0.31 -0.26,-0.04 -0.54,0.08 -0.7,0.29 -0.15,0.21 -0.19,0.49 -0.11,0.74 -0.01,0.02 -0.02,0.04 -0.03,0.06 -0.01,0.01 -0.03,0.02 -0.04,0.02 -0.02,0.02 -0.05,0.03 -0.07,0.06 -0.05,0.06 0,0.11 0.03,0.13zm0.22 -0.81l0 0c-0.02,0.06 -0.03,0.12 -0.04,0.17 0,0.02 0,0.05 -0.01,0.08 0,0.03 0,0.06 -0.01,0.1 -0.01,-0.12 0.01,-0.24 0.06,-0.35zm0.92 0.06l0 0c-0.03,-0.1 -0.07,-0.21 -0.16,-0.28 -0.07,-0.06 -0.16,-0.09 -0.28,-0.09 -0.03,0 -0.07,0 -0.11,0.01 -0.11,0.02 -0.19,0.05 -0.25,0.1 0.15,-0.15 0.36,-0.23 0.56,-0.2 0.17,0.03 0.33,0.13 0.45,0.28 0.09,0.12 0.16,0.27 0.2,0.44l-0.35 0.02c-0.01,-0.09 -0.03,-0.19 -0.06,-0.28zm-0.05 0.68c-0.03,0.03 -0.09,0.05 -0.13,0.07l0.13 -0.07zm-0.83 0.15c-0.07,-0.04 -0.14,-0.1 -0.21,-0.15 0,0 0,-0.01 -0.01,-0.01 0.01,-0.01 0.03,-0.02 0.04,-0.03l0.18 0.19z"/>
  </g>
  <path class="fil4" d="M3.14 2c0,0.05 -0.01,0.09 -0.04,0.12l0.07 0.06c0.04,-0.05 0.06,-0.1 0.06,-0.18 0,-0.07 0,-0.14 0,-0.2 -0.01,-0.05 -0.01,-0.11 -0.01,-0.16 0,-0.14 0.01,-0.25 0.05,-0.34 0.04,-0.11 0.11,-0.19 0.2,-0.23 0.09,-0.04 0.2,-0.04 0.3,0 0.09,0.03 0.18,0.09 0.27,0.18l0.06 -0.06c-0.09,-0.09 -0.18,-0.16 -0.27,-0.2l0.08 -0.18 -0.01 -0.01c-0.02,-0.11 -0.01,-0.22 0.01,-0.33 0.02,-0.09 0.07,-0.18 0.16,-0.26l0.05 -0.05 -0.07 -0.02c-0.23,-0.08 -0.47,-0.12 -0.75,-0.14l-0.02 0 -0.01 0.02c-0.09,0.11 -0.16,0.24 -0.22,0.36 -0.03,0.07 -0.05,0.13 -0.08,0.2 0,0.01 0,0.02 -0.01,0.03 -0.01,0.05 -0.04,0.1 -0.04,0.16 -0.01,0.36 0.07,0.7 0.22,1.03 0,0 0,0 0,0 0,0.07 0,0.13 0,0.2zm0.68 -1.56l0 0c-0.02,0.11 -0.03,0.22 -0.02,0.32 -0.14,-0.04 -0.29,-0.04 -0.44,0.01l-0.03 0.01 0 0.01 0 -0.01c-0.1,0.14 -0.15,0.29 -0.13,0.44 -0.01,0.02 -0.01,0.04 -0.02,0.05 -0.03,0.08 -0.04,0.17 -0.05,0.27 -0.08,-0.24 -0.12,-0.5 -0.12,-0.77 0,-0.04 0.02,-0.09 0.04,-0.13 0,-0.01 0.01,-0.02 0.01,-0.03 0.02,-0.07 0.05,-0.13 0.08,-0.19 0.05,-0.11 0.11,-0.22 0.18,-0.33 0.23,0.02 0.44,0.06 0.63,0.11 -0.06,0.08 -0.11,0.16 -0.13,0.24zm-0.35 0.53l0 0 -0.04 -0.13c0.12,-0.03 0.25,-0.03 0.36,0.01l-0.05 0.11c-0.09,-0.02 -0.19,-0.02 -0.27,0.01zm-0.18 0.12l0 0c0.01,-0.06 0.03,-0.13 0.07,-0.19l0.03 0.11c-0.04,0.02 -0.07,0.05 -0.1,0.08z"/>
  <path class="fil4" d="M3.38 0.49c0,-0.11 0,-0.21 0,-0.32 0,-0.02 0,-0.05 0,-0.07 -0.01,-0.03 -0.03,-0.05 -0.05,-0.06 -0.05,0.07 -0.1,0.15 -0.15,0.22 0.11,0.17 0.15,0.38 0.14,0.58 0.05,-0.1 0.07,-0.24 0.06,-0.35z"/>
  <path class="fil4" d="M3.18 0.89c-0.04,-0.01 -0.08,-0.03 -0.12,-0.06 -0.03,-0.02 -0.06,-0.05 -0.07,-0.09 -0.02,-0.04 -0.01,-0.09 0.01,-0.12 0.03,0.1 0.09,0.2 0.18,0.27z"/>
  <path class="fil4" d="M3.04 0.57c-0.02,-0.06 0.01,-0.13 0.06,-0.16 0,0.04 0.01,0.09 0.01,0.13 0.01,0.07 0.05,0.14 0.11,0.18 -0.04,-0.02 -0.08,-0.03 -0.11,-0.05 -0.03,-0.03 -0.06,-0.06 -0.07,-0.1z"/>
  <path class="fil4" d="M3.57 0.26c0,-0.05 0,-0.09 -0.02,-0.13 -0.02,-0.04 -0.07,-0.07 -0.11,-0.05 0.06,0.14 0.08,0.29 0.07,0.44 0.03,-0.09 0.05,-0.17 0.06,-0.26z"/>
  <path class="fil4" d="M3.9 0.17c-0.02,-0.03 -0.07,-0.03 -0.1,-0.01 -0.03,0.01 -0.05,0.05 -0.07,0.08 -0.04,0.09 -0.06,0.19 -0.06,0.29 0.03,-0.15 0.11,-0.28 0.23,-0.36z"/>
  <g>
   <polygon class="fil5" points="7.83,6.92 1.35,1.75 1.21,1.23 0.1,0.77 0.73,1.89 1.17,1.97 7.77,7.16 "/>
   <polygon class="fil6" points="0.15,0.86 0.2,0.84 0.9,1.55 1.33,1.91 7.77,7.03 7.77,7.16 1.12,1.94 1.16,1.94 0.75,1.9 "/>
   <path class="fil4" d="M1.15 2.02l-0.45 -0.09 -0.7 -1.25 1.25 0.52 0.14 0.53 6.49 5.18 -0.08 0.33 -6.65 -5.22zm0.16 -0.24l0 0 -0.14 -0.51 -0.96 -0.4 0.55 0.98 0.43 0.08 6.55 5.15 0.04 -0.14 -6.47 -5.16z"/>
  </g>
  <g>
   <path class="fil0" d="M5.1 3.81c-0.13,0.06 -0.26,0.12 -0.39,0.18 0.12,0.1 0.14,0.28 0.26,0.38 0.07,0.05 0.16,0.07 0.24,0.09 0.4,0.06 0.82,0.01 1.19,-0.15 0.05,-0.02 0.1,-0.04 0.12,-0.09 0.04,-0.06 0.02,-0.13 0,-0.19 -0.06,-0.15 -0.15,-0.29 -0.27,-0.39 -0.17,-0.16 -0.34,-0.34 -0.57,-0.41 -0.19,-0.05 -0.33,-0.28 -0.53,-0.3 -0.16,-0.02 -0.32,0.05 -0.41,0.18 -0.05,0.07 -0.08,0.15 -0.08,0.23 -0.01,0.08 0,0.16 0.05,0.22 0.04,0.08 0.11,0.13 0.19,0.18 0.06,0.03 0.13,0.06 0.2,0.07z"/>
   <path class="fil3" d="M6.22 3.61c-0.07,-0.07 -0.14,-0.14 -0.22,-0.2 -0.08,-0.05 -0.17,-0.1 -0.27,-0.11 0.16,0.07 0.28,0.2 0.35,0.36 0.07,0.15 0.08,0.33 0.03,0.49 0.07,0.02 0.15,-0.01 0.21,-0.06 0.06,-0.05 0.09,-0.13 0.08,-0.21 -0.02,-0.11 -0.1,-0.19 -0.18,-0.27z"/>
   <path class="fil3" d="M6.52 4.17c-0.05,0.05 -0.13,0.07 -0.2,0.08 -0.25,0.04 -0.51,0.01 -0.74,-0.07 0,0.1 -0.03,0.2 -0.09,0.28 0.19,0.04 0.38,0.01 0.57,-0.02 0.09,-0.02 0.19,-0.03 0.27,-0.07 0.09,-0.05 0.17,-0.11 0.19,-0.2z"/>
   <path class="fil5" d="M5.53 4.03c-0.01,-0.07 -0.04,-0.13 -0.09,-0.17 -0.04,-0.05 -0.11,-0.08 -0.17,-0.08 -0.05,0.01 -0.1,0.03 -0.15,0.04 -0.09,0.04 -0.18,0.08 -0.27,0.11 -0.01,0.02 0,0.04 0.01,0.05 0.01,0.01 0.02,0.02 0.04,0.03 0.13,0.09 0.2,0.25 0.18,0.4 0.13,0.02 0.25,0.03 0.37,0.05 0.05,-0.14 0.11,-0.29 0.08,-0.43z"/>
   <path class="fil6" d="M5.43 4.47c0.04,-0.02 0.07,-0.07 0.08,-0.11 0.04,-0.11 0.06,-0.24 0.02,-0.35 -0.04,-0.11 -0.13,-0.21 -0.25,-0.23 0.06,0.05 0.09,0.12 0.11,0.2 0.01,0.07 0.01,0.15 0,0.23 0,0.04 -0.01,0.09 -0.02,0.13 -0.01,0.05 -0.04,0.09 -0.07,0.12 0.04,0.01 0.09,0.02 0.13,0.01z"/>
   <path class="fil6" d="M5.23 4.48c0.04,-0.01 0.07,-0.06 0.08,-0.1 0.04,-0.1 0.06,-0.21 0.02,-0.31 -0.04,-0.11 -0.13,-0.19 -0.25,-0.21 0.06,0.04 0.09,0.11 0.11,0.18 0.01,0.07 0.01,0.14 0,0.21 0,0.04 0,0.08 -0.02,0.12 -0.01,0.04 -0.04,0.08 -0.07,0.1 0.04,0.02 0.09,0.03 0.13,0.01z"/>
   <path class="fil3" d="M5.17 3.78c0.07,0 0.15,-0.01 0.2,0.03 0.03,0.02 0.05,0.04 0.07,0.06 0.05,0.02 0.1,0.01 0.14,0.01 0.12,-0.01 0.25,0 0.36,0.03 -0.27,-0.24 -0.6,-0.42 -0.96,-0.5 0.05,0.03 0.11,0.06 0.15,0.1 0.03,0.04 0.05,0.09 0.05,0.15 0,0 -0.08,-0.01 -0.09,-0.02 -0.02,-0.01 -0.03,-0.02 -0.05,-0.04 -0.04,-0.04 -0.08,-0.08 -0.12,-0.13 -0.08,-0.1 -0.12,-0.23 -0.12,-0.36 0,-0.02 0,-0.04 -0.02,-0.05 -0.01,-0.01 -0.03,-0.01 -0.04,0 -0.02,0.01 -0.02,0.03 -0.03,0.04 -0.03,0.08 -0.07,0.15 -0.07,0.23 -0.02,0.11 0.02,0.23 0.1,0.31 0.1,0.11 0.28,0.15 0.43,0.14z"/>
   <path class="fil4" d="M4.97 3.82l-0.35 0.16 0.06 0.04c0.05,0.05 0.08,0.11 0.12,0.18 0.04,0.07 0.08,0.15 0.15,0.2 0.07,0.06 0.16,0.09 0.26,0.1 0.11,0.02 0.23,0.03 0.35,0.03 0.29,0 0.59,-0.06 0.86,-0.18 0.05,-0.02 0.11,-0.05 0.14,-0.11 0.04,-0.05 0.04,-0.13 0,-0.22 -0.06,-0.16 -0.15,-0.31 -0.28,-0.42 -0.02,-0.02 -0.05,-0.05 -0.08,-0.07 -0.15,-0.14 -0.3,-0.28 -0.5,-0.34 -0.08,-0.02 -0.16,-0.08 -0.23,-0.14 -0.1,-0.08 -0.19,-0.15 -0.32,-0.17 -0.01,0 -0.03,0 -0.04,0 -0.16,0 -0.31,0.08 -0.4,0.2 -0.06,0.07 -0.09,0.16 -0.1,0.25 -0.01,0.1 0.01,0.19 0.06,0.26 0.05,0.07 0.12,0.14 0.2,0.19 0.03,0.01 0.06,0.03 0.1,0.04zm0.55 0.62l0 0c0.06,-0.09 0.09,-0.2 0.08,-0.3 0,-0.13 -0.06,-0.25 -0.15,-0.34 -0.03,-0.02 -0.05,-0.04 -0.07,-0.06 0.11,0.01 0.23,0.03 0.34,0.09 -0.16,-0.16 -0.35,-0.29 -0.55,-0.38 -0.06,-0.03 -0.13,-0.05 -0.2,-0.03 0.13,0.04 0.24,0.11 0.34,0.2 0.01,0.01 0.03,0.03 0.02,0.05 -0.01,0.01 -0.03,0.02 -0.04,0.02 -0.1,0.02 -0.19,0.03 -0.28,0.05 -0.03,-0.01 -0.06,-0.02 -0.09,-0.04 -0.07,-0.04 -0.13,-0.1 -0.18,-0.16 -0.03,-0.06 -0.05,-0.12 -0.04,-0.2 0.01,-0.07 0.03,-0.14 0.08,-0.2 0.07,-0.11 0.2,-0.17 0.33,-0.17 0.01,0 0.02,0 0.03,0 0.1,0.01 0.18,0.08 0.27,0.15 0.08,0.06 0.16,0.13 0.26,0.16 0.18,0.05 0.32,0.18 0.47,0.32 0.01,0 0.02,0.01 0.02,0.02 0.08,0.13 0.11,0.28 0.08,0.43 0.05,-0.09 0.07,-0.2 0.04,-0.3 0,-0.01 -0.01,-0.02 -0.01,-0.03 0.09,0.09 0.16,0.2 0.21,0.33 0.02,0.06 0.02,0.11 0,0.15 -0.02,0.03 -0.06,0.05 -0.1,0.07 -0.26,0.11 -0.54,0.17 -0.82,0.17 -0.01,0 -0.02,0 -0.04,0zm-0.16 -0.36l0 0c-0.04,-0.1 -0.1,-0.18 -0.17,-0.24 0,0 0,-0.01 0.01,-0.01 0.03,-0.01 0.05,-0.02 0.08,-0.02 0,0 0,0 0,0 0.04,0 0.08,0.03 0.11,0.05 0.07,0.08 0.12,0.18 0.12,0.28 0.01,0.1 -0.02,0.21 -0.09,0.29l0 0c-0.01,0 -0.03,0 -0.05,0 0.03,-0.11 0.03,-0.24 -0.01,-0.35zm-0.2 0.32l0 0c0.01,-0.17 -0.06,-0.36 -0.17,-0.49l0.09 -0.04c0.08,0.05 0.15,0.13 0.19,0.24 0.04,0.1 0.04,0.21 0.01,0.31 -0.02,0 -0.04,-0.01 -0.06,-0.01 -0.02,0 -0.04,-0.01 -0.06,-0.01zm-0.38 -0.4l0 0 0.12 -0.05c0.1,0.11 0.17,0.28 0.17,0.42 -0.02,-0.01 -0.05,-0.02 -0.07,-0.04 -0.05,-0.04 -0.08,-0.1 -0.12,-0.17 -0.03,-0.06 -0.06,-0.11 -0.1,-0.16z"/>
   <path class="fil0" d="M4.14 3.9c-0.04,0 -0.07,-0.01 -0.11,0.01 -0.04,0.02 -0.06,0.07 -0.08,0.12 -0.02,0.07 -0.04,0.14 -0.04,0.22 0.01,0.16 0.15,0.3 0.3,0.32 0.08,0.14 0.27,0.22 0.42,0.16 -0.03,-0.05 -0.07,-0.17 -0.01,-0.21 0.03,-0.02 0.1,-0.01 0.13,-0.01 0.06,-0.01 0.11,-0.01 0.17,-0.02 0.04,0 0.08,-0.01 0.1,-0.04 0.01,-0.01 0.02,-0.04 0.02,-0.06 0.01,-0.07 0.02,-0.13 0.01,-0.19 -0.02,-0.07 -0.06,-0.12 -0.11,-0.16 -0.05,-0.04 -0.11,-0.09 -0.17,-0.11 -0.05,-0.02 -0.13,-0.01 -0.19,-0.02 -0.15,0 -0.3,-0.01 -0.44,-0.01z"/>
   <path class="fil3" d="M3.91 4.11c-0.01,0.09 0,0.19 0.04,0.26 0.05,0.08 0.12,0.14 0.21,0.17 -0.05,-0.05 -0.09,-0.11 -0.1,-0.18 -0.01,-0.07 0.02,-0.15 0.07,-0.19 0.05,-0.03 0.11,-0.03 0.17,-0.03 0.22,-0.01 0.44,-0.02 0.67,-0.02 -0.04,-0.07 -0.09,-0.14 -0.16,-0.17 -0.06,-0.03 -0.12,-0.03 -0.18,-0.03 -0.17,0.01 -0.33,0.01 -0.5,0.01 -0.03,0 -0.06,0.01 -0.1,0.02 -0.06,0.02 -0.1,0.09 -0.12,0.16z"/>
   <g id="_1740253386992">
    <path class="fil5" d="M4.51 2.81c0.07,0.17 0.14,0.34 0.21,0.51 0.03,0.06 0.07,0.14 0.13,0.18 0.07,0.05 0.17,0.04 0.26,0.03 0.2,0 0.4,0.06 0.57,0.16 0.1,-0.29 0.04,-0.65 -0.17,-0.88 -0.07,-0.08 -0.15,-0.15 -0.23,-0.22 -0.07,-0.05 -0.14,-0.11 -0.22,-0.14 -0.14,-0.06 -0.31,-0.06 -0.44,0.01 -0.07,0.03 -0.13,0.08 -0.15,0.15 -0.01,0.07 0.01,0.14 0.04,0.2z"/>
    <path class="fil6" d="M5.17 2.66c-0.01,-0.07 -0.03,-0.14 -0.08,-0.19 -0.05,-0.05 -0.12,-0.07 -0.19,-0.06 -0.07,0 -0.14,0.02 -0.21,0.05 0.04,0.12 0.09,0.25 0.16,0.37 0.03,0.06 0.07,0.12 0.12,0.18 0.05,0.05 0.11,0.09 0.18,0.11 0.04,-0.07 0.06,-0.15 0.06,-0.23 0,-0.08 -0.02,-0.16 -0.04,-0.23z"/>
    <path class="fil6" d="M5.5 2.98c-0.01,0.12 -0.1,0.23 -0.21,0.28 -0.11,0.05 -0.24,0.05 -0.36,0.03 0.11,0.09 0.26,0.14 0.4,0.12 0.04,-0.01 0.08,-0.02 0.12,-0.04 0.06,-0.03 0.09,-0.11 0.1,-0.18 0,-0.07 -0.02,-0.14 -0.05,-0.21z"/>
    <path class="fil6" d="M5.38 3.57c0,-0.01 0.01,-0.02 0.02,-0.02 0.01,0 0.01,0 0.02,0 0.08,-0.01 0.16,-0.04 0.22,-0.1 0,0.07 -0.02,0.14 -0.05,0.2 -0.06,-0.02 -0.12,-0.03 -0.18,-0.05 -0.01,-0.01 -0.03,-0.01 -0.03,-0.03z"/>
    <path class="fil4" d="M5.65 3.73c-0.16,-0.1 -0.35,-0.15 -0.54,-0.15 -0.01,0 -0.02,0 -0.04,0 -0.01,0 -0.03,0 -0.05,0 -0.06,0 -0.13,0 -0.2,-0.04 -0.07,-0.05 -0.11,-0.14 -0.14,-0.21l-0.21 -0.51c-0.03,-0.05 -0.06,-0.13 -0.04,-0.22 0.02,-0.07 0.08,-0.14 0.17,-0.18 0.07,-0.04 0.16,-0.06 0.25,-0.06 0.08,0 0.16,0.02 0.23,0.05 0.09,0.04 0.16,0.09 0.23,0.15 0.08,0.06 0.16,0.13 0.24,0.22 0.21,0.25 0.28,0.61 0.17,0.93l-0.02 0.05 -0.05 -0.03zm-1.01 -1.23l0 0c-0.04,0.02 -0.11,0.06 -0.12,0.12 -0.01,0.05 0.01,0.11 0.03,0.17l0.22 0.51c0.03,0.07 0.05,0.13 0.1,0.16 0.05,0.03 0.1,0.03 0.15,0.03 0.01,0 0.03,0 0.05,0 0.01,0 0.03,0 0.04,0 0.19,0 0.38,0.04 0.54,0.13 0.08,-0.26 0.01,-0.58 -0.17,-0.79 -0.07,-0.07 -0.15,-0.14 -0.23,-0.2 -0.07,-0.05 -0.13,-0.11 -0.21,-0.14 -0.06,-0.03 -0.12,-0.04 -0.19,-0.04 -0.08,0 -0.15,0.02 -0.21,0.05z"/>
    <path class="fil4" d="M4.62 2.49c0,0.16 0.01,0.33 0.12,0.47 0.08,0.1 0.19,0.17 0.31,0.2 -0.07,0.03 -0.16,0.04 -0.24,0.03 0.06,0.13 0.17,0.25 0.31,0.31 -0.06,0 -0.11,0 -0.17,-0.01 -0.05,-0.01 -0.11,-0.03 -0.15,-0.06 -0.04,-0.05 -0.07,-0.1 -0.08,-0.16 -0.02,-0.06 -0.03,-0.12 -0.05,-0.18 -0.03,-0.08 -0.09,-0.16 -0.13,-0.24 -0.04,-0.09 -0.06,-0.19 -0.02,-0.29 0.02,-0.04 0.05,-0.07 0.1,-0.07z"/>
    <path class="fil4" d="M5.54 3.44c0.09,-0.03 0.15,-0.1 0.17,-0.19 0.01,-0.08 -0.02,-0.18 -0.09,-0.23 0.02,0.14 0,0.29 -0.08,0.42z"/>
    <path class="fil4" d="M4.74 3.37c0.23,0.09 0.47,0.11 0.71,0.07 -0.03,0.06 -0.1,0.1 -0.17,0.11 -0.07,0.02 -0.14,0.02 -0.21,0.01 -0.05,0 -0.11,0 -0.16,-0.03 -0.07,-0.03 -0.12,-0.1 -0.17,-0.16z"/>
    <path class="fil4" d="M5.18 2.55c0.14,0.16 0.18,0.39 0.11,0.59 0.05,-0.06 0.1,-0.12 0.12,-0.19 0.03,-0.07 0.04,-0.15 0.01,-0.22 -0.04,-0.09 -0.14,-0.14 -0.24,-0.18z"/>
   </g>
   <path class="fil4" d="M3.87 4.25c0.01,0.17 0.15,0.33 0.32,0.36 0.07,0.11 0.2,0.19 0.34,0.19 0.04,0 0.08,-0.01 0.11,-0.02l0.05 -0.02 -0.02 -0.05c-0.03,-0.06 -0.04,-0.14 -0.02,-0.15 0.01,-0.01 0.05,-0.01 0.07,-0.01 0.01,0 0.03,0 0.04,0l0.16 -0.01c0.04,-0.01 0.1,-0.01 0.13,-0.06 0.03,-0.03 0.03,-0.06 0.04,-0.09 0.01,-0.06 0.02,-0.13 0,-0.2 -0.02,-0.07 -0.06,-0.13 -0.12,-0.19 -0.03,-0.02 -0.11,-0.08 -0.18,-0.11 -0.05,-0.02 -0.11,-0.02 -0.16,-0.02 -0.02,0 -0.04,0 -0.05,0l-0.44 -0.02c-0.01,0 -0.02,0 -0.03,0 -0.03,0 -0.06,0 -0.1,0.02 -0.05,0.03 -0.08,0.09 -0.1,0.14 -0.02,0.07 -0.05,0.15 -0.04,0.24zm0.13 -0.21l0 0c0.01,-0.04 0.03,-0.07 0.06,-0.09 0.01,-0.01 0.03,-0.01 0.05,-0.01 0.01,0 0.02,0 0.03,0l0.43 0.02c0.02,0 0.04,0 0.06,0 0.04,0 0.09,0 0.13,0.01 0.04,0.02 0.1,0.05 0.15,0.1 0.03,0.03 0.08,0.08 0.09,0.14 0.01,0.05 0.01,0.11 0,0.17 0,0.02 -0.01,0.04 -0.02,0.05 -0.01,0.01 -0.04,0.01 -0.06,0.02l-0.17 0.01c-0.01,0 -0.02,0 -0.03,0 -0.04,0 -0.09,0 -0.12,0.02 -0.07,0.05 -0.06,0.14 -0.03,0.22 -0.02,0 -0.03,0.01 -0.04,0.01 -0.04,0 -0.08,-0.01 -0.12,-0.03 -0.01,-0.13 0.02,-0.27 0.1,-0.37 -0.04,0 -0.08,0.02 -0.1,0.05 -0.02,0.04 -0.04,0.07 -0.05,0.11 -0.01,0.05 -0.03,0.09 -0.02,0.14 0,0.01 0,0.02 0,0.04 -0.03,-0.03 -0.07,-0.06 -0.09,-0.1l-0.01 -0.02 0 0c0,-0.11 0.03,-0.23 0.1,-0.32 -0.04,0 -0.08,0.03 -0.1,0.06 -0.03,0.03 -0.04,0.07 -0.05,0.11 -0.01,0.04 -0.03,0.09 -0.03,0.13 -0.03,-0.01 -0.07,-0.03 -0.1,-0.06 -0.01,-0.13 0.03,-0.25 0.1,-0.35 -0.04,0 -0.08,0.02 -0.1,0.05 -0.02,0.04 -0.03,0.07 -0.05,0.11 -0.01,0.03 -0.02,0.06 -0.02,0.1 -0.02,-0.04 -0.03,-0.08 -0.03,-0.11 -0.01,-0.07 0.01,-0.15 0.04,-0.21z"/>
   <path class="fil4" d="M4.01 3.98c0.03,-0.04 0.08,-0.07 0.14,-0.07 0.05,0.01 0.1,0.03 0.14,0.06 0.07,0.04 0.12,0.09 0.17,0.15 -0.14,-0.08 -0.29,-0.13 -0.45,-0.14z"/>
   <path class="fil4" d="M4.59 4.28c0.12,0.01 0.25,0.01 0.37,0.02 -0.02,-0.04 -0.06,-0.05 -0.1,-0.05 -0.09,-0.02 -0.18,-0.01 -0.27,0.03z"/>
  </g>
  <g>
   <g id="_1740253393616">
    <polygon class="fil5" points="1.43,1.69 1.12,2.04 1.63,2.43 1.9,2.11 "/>
    <path class="fil5" d="M1.64 2.49l-0.58 -0.44 0.36 -0.41 0.53 0.47 -0.31 0.38zm-0.47 -0.46l0 0 0.46 0.35 0.22 -0.27 -0.42 -0.37 -0.26 0.29z"/>
   </g>
   <path class="fil6" d="M1.19 1.99c0.03,-0.07 0.08,-0.15 0.13,-0.21 0.02,-0.03 0.05,-0.07 0.09,-0.07 0.03,0 0.07,0.02 0.09,0.05 0.03,0.02 0.04,0.05 0.07,0.08 -0.02,0.08 -0.03,0.16 -0.01,0.25 -0.02,-0.02 -0.04,-0.04 -0.06,-0.06 -0.02,0.13 0.02,0.26 0.09,0.36 -0.12,-0.09 -0.25,-0.18 -0.37,-0.27 -0.02,-0.02 -0.04,-0.03 -0.05,-0.05 -0.01,-0.03 0.01,-0.05 0.02,-0.08z"/>
   <path class="fil4" d="M1.05 2.05l0.37 -0.42 0.54 0.47 -0.32 0.4 -0.59 -0.45zm0.38 -0.3l0 0 -0.25 0.28 0.45 0.34 0.21 -0.26 -0.41 -0.36z"/>
  </g>
  <path class="fil7" d="M3.83 1.92c-0.08,-0.04 -0.15,-0.08 -0.22,-0.13 0.02,0.07 0.06,0.12 0.12,0.16 0.04,-0.01 0.07,-0.02 0.1,-0.03l0 0z"/>
  <path class="fil7" d="M3.96 1.92c0.08,-0.04 0.15,-0.08 0.22,-0.13 -0.02,0.07 -0.06,0.12 -0.13,0.16 -0.03,-0.01 -0.06,-0.02 -0.09,-0.03l0 0z"/>
 </g>
</svg>
