<?xml version="1.0" encoding="UTF-8"?>
<!DOCTYPE svg PUBLIC "-//W3C//DTD SVG 1.1//EN" "http://www.w3.org/Graphics/SVG/1.1/DTD/svg11.dtd">
<!-- Creator: CorelDRAW 2020 (64 Bit) -->
<svg xmlns="http://www.w3.org/2000/svg" xml:space="preserve" width="246px" height="281px" version="1.1" style="shape-rendering:geometricPrecision; text-rendering:geometricPrecision; image-rendering:optimizeQuality; fill-rule:evenodd; clip-rule:evenodd"
viewBox="0 0 62.64 71.4"
 xmlns:xlink="http://www.w3.org/1999/xlink"
 xmlns:xodm="http://www.corel.com/coreldraw/odm/2003">
 <defs>
  <style type="text/css">
   <![CDATA[
    .fil3 {fill:#282829}
    .fil0 {fill:black}
    .fil2 {fill:gray}
    .fil6 {fill:#AC8C13}
    .fil10 {fill:#AC8C13}
    .fil4 {fill:#D9AB3A}
    .fil8 {fill:#D9AB3A}
    .fil5 {fill:#F0D07F}
    .fil9 {fill:#F0D07F}
    .fil1 {fill:#F5FDFD}
    .fil12 {fill:red}
    .fil7 {fill:white}
    .fil11 {fill:white}
   ]]>
  </style>
 </defs>
 <g id="Camada_x0020_1">
  <metadata id="CorelCorpID_0Corel-Layer"/>
  <g id="_2566332329744">
   <g>
    <path class="fil0" d="M33.44 61.54c14,-6.29 22.85,-20.3 28.62,-33.99l0.58 -1.36 -0.95 -1.14c-7.48,-8.93 -16.68,-16.1 -28.09,-19.11 -9.62,-2.54 -19.45,-1.73 -28.92,1.04l-4.68 1.36 3.91 2.91c0.75,0.55 1.5,1.11 2.24,1.66 -0.55,3.36 -0.78,6.78 -0.66,10.18 0.66,18.02 11.19,32.63 24.12,44.34l4.38 3.97 -0.55 -9.86z"/>
    <path class="fil1" d="M31.24 65.63c-19.63,-17.77 -25.93,-35.52 -22.44,-53.77 0,0 -0.95,-0.71 -3.44,-2.56 21.41,-6.26 39.41,-0.69 54.47,17.31 -7.29,17.28 -16.86,28.6 -28.91,33.36l0.32 5.66z"/>
    <path class="fil2" d="M29.11 60.71c-17.44,-17.22 -19.17,-30.47 -18.17,-49.94l-1.38 -0.77c18.46,-4.2 33.83,0.55 47.9,16.59 -10.02,22.44 -21.78,29.02 -28.43,31.77l0.08 2.35z"/>
    <path class="fil0" d="M54.23 27.3c-4.6,13.82 -12.93,22 -25.44,28.02 -11.2,-11.62 -16.96,-27.28 -15.01,-43.53 16.65,-3.04 31.23,2.56 40.45,15.51z"/>
   </g>
   <g>
    <path class="fil3" d="M39.78 0.17l0.08 -0.17 0.75 0.26 2.85 0.37 -0.2 0.56 3.92 1.37 -3.26 7.76c-1.17,-0.65 -3.51,-2.08 -4.03,-0.83 -2.62,6.3 -6.23,12.69 -1.77,-1.89 0.26,-0.86 -1.69,-0.62 -2.56,-0.89l0.23 -0.82c-0.66,0.08 -1.3,0.18 -1.93,0.32l-0.29 -0.08c-3.32,-0.87 -6.66,-1.33 -10.01,-1.43 4.61,-3.37 10.3,-5.11 16.22,-4.53z"/>
    <path class="fil4" d="M40.53 2.27c-14.01,-1.81 -26.08,10.21 -25.82,23.89l1.95 -0.19 2.87 -5.65 1.13 0.26c3.07,-5.32 9.88,-6.78 15.16,-5.18l4.71 -13.13 0 0z"/>
    <path class="fil5" d="M40.53 2.27c-4.05,-0.52 -7.93,0.11 -11.4,1.6 -1.84,2.49 -2.94,5.67 -2.94,9.13 0,0.93 0.08,1.85 0.24,2.74 2.99,-1.17 6.43,-1.24 9.39,-0.34l4.71 -13.13 0 0z"/>
    <path class="fil6" d="M17.94 15.81c-1.59,3.27 -2.39,6.75 -2.72,10.47 0.65,-0.06 1.3,-0.12 1.96,-0.18 0.95,-1.89 1.91,-3.77 2.86,-5.66 0.38,0.09 0.76,0.18 1.13,0.27 0.57,-0.98 1.25,-1.82 2.03,-2.54 -1.71,-0.36 -3.3,-0.94 -5.26,-2.36l0 0z"/>
    <path class="fil7" d="M40.89 19.29c2.12,1.34 2.98,3.36 3.47,5.68 -1.71,-1.56 -2.74,-3.65 -3.47,-5.68l0 0z"/>
    <path class="fil7" d="M34.7 16.14c1.65,0.35 2.69,0.86 3.99,1.7 -5.84,4.48 -11,5.14 -16.86,3.35 2.38,-3.97 7.55,-6.16 12.87,-5.05l0 0z"/>
    <path class="fil8" d="M37.77 18.52c-5.51,3.86 -10.39,4.37 -15.94,2.67 0.4,-0.67 0.88,-1.28 1.42,-1.84 2.71,-2.26 6.63,-3.29 10.64,-2.46 1.6,0.34 2.6,0.82 3.88,1.63l0 0z"/>
    <path class="fil9" d="M37.77 18.52c-2.04,1.42 -3.99,2.39 -5.92,2.96 -1.49,-0.37 -2.63,-1.33 -2.92,-2.64 -0.16,-0.71 -0.05,-1.43 0.27,-2.09 1.5,-0.23 3.09,-0.19 4.69,0.14 1.6,0.34 2.6,0.82 3.88,1.63l0 0z"/>
    <path class="fil10" d="M26.91 22.45c-1.45,-0.13 -2.91,-0.44 -4.38,-0.89 0.4,-0.66 0.88,-1.28 1.42,-1.84 0.84,-0.7 1.81,-1.29 2.86,-1.73 -1.37,1.15 -1.48,3.39 0.1,4.46l0 0z"/>
    <path class="fil9" d="M39.58 18.42c-6.56,5.34 -12.83,5.67 -19.44,3.24l-3.8 7.63 3.67 3.77c-0.37,0.91 -0.75,1.82 -1.12,2.74l-2.38 3.29c3.7,5.74 7.81,9.61 14.29,12.65 -0.81,-4.83 -0.81,-10.23 0.37,-15.34 -3.1,-1.96 -5.94,-5.24 -6.06,-8.57 3.43,2.19 7.07,4.43 10.73,5.88l-0.9 4.35 -0.92 1.19 2.05 3.97 2.71 -3.09 -0.21 -1.21c0.34,-1.53 0.68,-3.07 1.01,-4.6 1.53,-0.27 3.46,-0.68 4.74,-1.29 -0.65,1.95 -2.21,3.2 -3.81,3.66 -0.19,4.24 -0.94,8.76 -2.47,12.8 2.24,-1.22 4.11,-3.17 4.87,-4.13 1.64,-5.65 2.65,-12.7 2.81,-18.21 -3.07,-1.56 -5.12,-5.59 -6.14,-8.73l0 0z"/>
    <path class="fil8" d="M39.58 18.42c-6.56,5.34 -12.83,5.67 -19.44,3.24 -1.26,2.54 -2.53,5.09 -3.8,7.63 1.22,1.26 2.45,2.51 3.67,3.77 -0.37,0.91 -0.75,1.82 -1.12,2.74 -0.79,1.09 -1.59,2.19 -2.38,3.29 3.7,5.74 7.81,9.61 14.29,12.65 -0.81,-4.83 -0.81,-10.23 0.37,-15.34 -3.1,-1.96 -5.94,-5.24 -6.06,-8.57 3.43,2.19 7.07,4.43 10.73,5.88 -0.3,1.45 -0.6,2.9 -0.9,4.35 -0.3,0.4 -0.61,0.79 -0.92,1.19 0.68,1.32 1.36,2.65 2.05,3.97 1.93,-7.31 3.4,-15.19 3.51,-24.8l0 0z"/>
    <path class="fil7" d="M26.3 49.25c1.37,0.9 2.86,1.72 4.5,2.49 -0.81,-4.83 -0.81,-10.23 0.37,-15.34 -3.1,-1.96 -5.94,-5.24 -6.06,-8.57 -0.4,3.41 1.65,6.19 5.27,8.89 -0.68,4.31 -1.11,7.94 -0.4,13.9l-3.68 -1.37 0 0z"/>
    <path class="fil7" d="M34.02 39.25l2.05 3.97 2.71 -3.09 -0.21 -1.21c0.34,-1.53 0.68,-3.07 1.01,-4.6l-1.28 0.22 0.72 0.25 -0.93 4.17 0.18 1 -1.95 2.27 -2.3 -2.98 0 0z"/>
    <path class="fil10" d="M25.68 23.78c-1.79,-0.24 -3.21,-0.66 -4.78,-1.28 -1.27,2.55 -2.25,4.18 -3.52,6.73 1.22,1.25 2.28,2.45 3.5,3.71 -0.37,0.91 -1.01,2.74 -1.38,3.65 -0.8,1.1 -1.61,2.32 -2.41,3.42 2.41,3.72 4.63,6.12 7.9,8.56 -5.93,-8.6 -0.92,-21.54 0.69,-24.79l0 0z"/>
    <path class="fil7" d="M38.04 49.49c2.24,-1.22 4.11,-3.17 4.87,-4.13 1.64,-5.65 2.65,-12.7 2.81,-18.21 -3.07,-1.56 -5.12,-5.59 -6.14,-8.73 0.21,3.29 2.03,6.74 5.37,9.12 0.03,5.39 -1,11.38 -2.46,16.91 -1.33,1.92 -2.89,3.48 -4.45,5.04l0 0z"/>
    <path class="fil5" d="M44.49 3.69l-2.98 -1.05 -4.63 13.11c0.76,0.27 1.48,0.6 2.15,0.98l5.46 -13.04 0 0z"/>
    <g>
     <path class="fil11" d="M40.53 2.27c-9.37,-1.21 -17.87,3.76 -22.39,11.28 5.26,-6.26 11.72,-10.69 21.14,-10.55 -1.15,4.13 -2.31,8.27 -3.46,12.4 1.57,-4.37 3.14,-8.75 4.71,-13.13l0 0z"/>
     <polygon class="fil7" points="41.51,2.64 43.72,3.93 38.83,16.14 36.88,15.75 39.03,16.73 44.49,3.69 41.51,2.64 "/>
    </g>
    <path class="fil12" d="M33.72 33.9c-2.32,-1.21 -4.42,-2.48 -6.46,-3.76 0.57,1.87 1.79,3.41 3.7,4.6 0.92,-0.28 1.84,-0.56 2.76,-0.84l0 0z"/>
    <path class="fil12" d="M40.04 34.97c1.24,-0.19 1.88,-0.43 2.93,-0.7 -0.5,0.76 -0.91,1.16 -1.91,1.43 -0.38,-0.24 -0.65,-0.48 -1.02,-0.73l0 0z"/>
    <path class="fil7" d="M33.36 16.62c1.15,0.15 2.01,0.67 1.93,1.17 -0.07,0.5 -1.06,0.78 -2.2,0.64 -1.14,-0.15 -2.01,-0.67 -1.93,-1.17 0.08,-0.5 1.06,-0.78 2.2,-0.64l0 0z"/>
   </g>
  </g>
 </g>
</svg>
