<?xml version="1.0" standalone="no"?>
<!DOCTYPE svg PUBLIC "-//W3C//DTD SVG 20010904//EN"
 "http://www.w3.org/TR/2001/REC-SVG-20010904/DTD/svg10.dtd">
<svg version="1.0" xmlns="http://www.w3.org/2000/svg"
 width="281.000000pt" height="281.000000pt" viewBox="0 0 281.000000 281.000000"
 preserveAspectRatio="xMidYMid meet">
<metadata>
Created by potrace 1.14, written by Peter Selinger 2001-2017
</metadata>
<g transform="translate(0.000000,281.000000) scale(0.100000,-0.100000)"
fill="#000000" stroke="none">
<path d="M1587 2804 c-1 -1 -27 -4 -57 -7 -114 -13 -250 -60 -355 -124 -59
-36 -63 -37 -169 -39 -180 -3 -396 -31 -535 -70 -31 -8 -65 -17 -76 -20 -81
-19 -210 -62 -208 -69 2 -6 51 -46 110 -90 123 -92 112 -64 97 -250 -12 -143
-7 -355 10 -441 2 -12 7 -39 10 -60 4 -22 9 -47 12 -57 3 -11 7 -29 9 -40 4
-27 52 -195 64 -222 5 -11 15 -36 22 -55 28 -78 109 -241 168 -338 53 -87 174
-266 191 -282 3 -3 25 -30 50 -60 82 -100 113 -134 270 -290 193 -192 333
-316 307 -272 -3 4 -8 65 -11 137 -4 72 -9 151 -10 177 -2 25 -1 50 3 55 3 4
35 23 71 42 80 41 240 147 300 198 96 82 226 219 320 339 127 160 294 453 404
707 l47 107 -53 62 c-70 83 -240 252 -307 308 -29 25 -59 50 -65 55 -30 28
-160 118 -229 160 -43 26 -76 52 -74 59 3 6 30 71 62 145 44 105 53 136 43
142 -7 5 -16 9 -20 9 -24 0 -118 43 -118 54 0 6 -15 13 -32 15 -41 3 -83 9
-83 11 0 2 -166 6 -168 4z"/>
</g>
</svg>
